<svg width="54" height="31" viewBox="0 0 54 31" fill="none" xmlns="http://www.w3.org/2000/svg">
<rect y="1.5" width="54" height="28" rx="3" fill="#828282" fill-opacity="0.3"/>
<path d="M10.7639 21.5V20.412L15.3239 16.012C15.7292 15.628 16.0279 15.292 16.2199 15.004C16.4225 14.7053 16.5559 14.4333 16.6199 14.188C16.6945 13.932 16.7319 13.6867 16.7319 13.452C16.7319 12.876 16.5292 12.4227 16.1239 12.092C15.7185 11.7613 15.1265 11.596 14.3479 11.596C13.7505 11.596 13.2119 11.6973 12.7319 11.9C12.2519 12.092 11.8359 12.396 11.4839 12.812L10.3959 11.868C10.8225 11.324 11.3932 10.908 12.1079 10.62C12.8332 10.3213 13.6279 10.172 14.4919 10.172C15.2705 10.172 15.9479 10.3 16.5239 10.556C17.0999 10.8013 17.5425 11.1587 17.8519 11.628C18.1719 12.0973 18.3319 12.652 18.3319 13.292C18.3319 13.6547 18.2839 14.012 18.1879 14.364C18.0919 14.716 17.9105 15.0893 17.6439 15.484C17.3772 15.8787 16.9932 16.3213 16.4919 16.812L12.4279 20.732L12.0439 20.108H18.8119V21.5H10.7639ZM23.7434 21.628C22.954 21.628 22.186 21.5053 21.4394 21.26C20.7034 21.0147 20.1007 20.684 19.6314 20.268L20.3674 19.004C20.7407 19.356 21.226 19.644 21.8234 19.868C22.4207 20.092 23.0554 20.204 23.7274 20.204C24.5807 20.204 25.2367 20.0227 25.6954 19.66C26.154 19.2973 26.3834 18.812 26.3834 18.204C26.3834 17.788 26.282 17.4253 26.0794 17.116C25.8767 16.8067 25.5247 16.572 25.0234 16.412C24.5327 16.2413 23.8554 16.156 22.9914 16.156H20.4474L21.0394 10.3H27.3594V11.692H21.6314L22.4634 10.908L21.9994 15.532L21.1674 14.764H23.3274C24.4474 14.764 25.3487 14.908 26.0314 15.196C26.714 15.484 27.21 15.884 27.5194 16.396C27.8287 16.8973 27.9834 17.4787 27.9834 18.14C27.9834 18.78 27.8287 19.3667 27.5194 19.9C27.21 20.4227 26.7407 20.844 26.1114 21.164C25.4927 21.4733 24.7034 21.628 23.7434 21.628ZM30.2269 21.5V10.3H31.5389L36.5629 18.764H35.8589L40.8189 10.3H42.1309L42.1469 21.5H40.6109L40.5949 12.716H40.9629L36.5469 20.14H35.8109L31.3629 12.716H31.7629V21.5H30.2269Z" fill="#565656"/>
</svg>
