<svg width="56" height="31" viewBox="0 0 56 31" fill="none" xmlns="http://www.w3.org/2000/svg">
<rect y="1.5" width="56" height="28" rx="3" fill="#11CDEF" fill-opacity="0.3"/>
<path d="M14.8137 21.628C14.0244 21.628 13.2564 21.5053 12.5097 21.26C11.7737 21.0147 11.171 20.684 10.7017 20.268L11.4377 19.004C11.811 19.356 12.2964 19.644 12.8937 19.868C13.491 20.092 14.1257 20.204 14.7977 20.204C15.651 20.204 16.307 20.0227 16.7657 19.66C17.2244 19.2973 17.4537 18.812 17.4537 18.204C17.4537 17.788 17.3524 17.4253 17.1497 17.116C16.947 16.8067 16.595 16.572 16.0937 16.412C15.603 16.2413 14.9257 16.156 14.0617 16.156H11.5177L12.1097 10.3H18.4297V11.692H12.7017L13.5337 10.908L13.0697 15.532L12.2377 14.764H14.3977C15.5177 14.764 16.419 14.908 17.1017 15.196C17.7844 15.484 18.2804 15.884 18.5897 16.396C18.899 16.8973 19.0537 17.4787 19.0537 18.14C19.0537 18.78 18.899 19.3667 18.5897 19.9C18.2804 20.4227 17.811 20.844 17.1817 21.164C16.563 21.4733 15.7737 21.628 14.8137 21.628ZM24.9612 21.628C24.0865 21.628 23.3025 21.404 22.6092 20.956C21.9265 20.508 21.3825 19.8573 20.9772 19.004C20.5825 18.1507 20.3852 17.116 20.3852 15.9C20.3852 14.684 20.5825 13.6493 20.9772 12.796C21.3825 11.9427 21.9265 11.292 22.6092 10.844C23.3025 10.396 24.0865 10.172 24.9612 10.172C25.8252 10.172 26.6039 10.396 27.2972 10.844C27.9905 11.292 28.5345 11.9427 28.9292 12.796C29.3239 13.6493 29.5212 14.684 29.5212 15.9C29.5212 17.116 29.3239 18.1507 28.9292 19.004C28.5345 19.8573 27.9905 20.508 27.2972 20.956C26.6039 21.404 25.8252 21.628 24.9612 21.628ZM24.9612 20.204C25.5479 20.204 26.0599 20.044 26.4972 19.724C26.9452 19.404 27.2919 18.924 27.5372 18.284C27.7932 17.644 27.9212 16.8493 27.9212 15.9C27.9212 14.9507 27.7932 14.156 27.5372 13.516C27.2919 12.876 26.9452 12.396 26.4972 12.076C26.0599 11.756 25.5479 11.596 24.9612 11.596C24.3745 11.596 23.8572 11.756 23.4092 12.076C22.9612 12.396 22.6092 12.876 22.3532 13.516C22.1079 14.156 21.9852 14.9507 21.9852 15.9C21.9852 16.8493 22.1079 17.644 22.3532 18.284C22.6092 18.924 22.9612 19.404 23.4092 19.724C23.8572 20.044 24.3745 20.204 24.9612 20.204ZM31.9691 21.5V10.3H33.2811L38.3051 18.764H37.6011L42.5611 10.3H43.8731L43.8891 21.5H42.3531L42.3371 12.716H42.7051L38.2891 20.14H37.5531L33.1051 12.716H33.5051V21.5H31.9691Z" fill="#044F5C"/>
</svg>
