<svg width="91" height="28" viewBox="0 0 91 28" fill="none" xmlns="http://www.w3.org/2000/svg">
<rect width="91" height="28" rx="3" fill="#F5365C" fill-opacity="0.3"/>
<path d="M11.2089 16.272V14.944H15.5129V16.272H11.2089ZM18.7966 20V9.44L19.4846 10.192H16.2686V8.8H20.3806V20H18.7966ZM27.5345 20.128C26.5425 20.128 25.6945 19.9093 24.9905 19.472C24.2865 19.0347 23.7478 18.4053 23.3745 17.584C23.0118 16.752 22.8305 15.7387 22.8305 14.544C22.8305 13.2747 23.0545 12.2027 23.5025 11.328C23.9505 10.4533 24.5745 9.792 25.3745 9.344C26.1745 8.896 27.0918 8.672 28.1265 8.672C28.6598 8.672 29.1665 8.72533 29.6465 8.832C30.1372 8.93867 30.5585 9.104 30.9105 9.328L30.3025 10.576C30.0145 10.3733 29.6838 10.2347 29.3105 10.16C28.9478 10.0853 28.5638 10.048 28.1585 10.048C27.0172 10.048 26.1105 10.4053 25.4385 11.12C24.7665 11.824 24.4305 12.8747 24.4305 14.272C24.4305 14.496 24.4412 14.7627 24.4625 15.072C24.4838 15.3813 24.5372 15.6853 24.6225 15.984L24.0785 15.44C24.2385 14.9493 24.4892 14.5387 24.8305 14.208C25.1825 13.8667 25.5985 13.616 26.0785 13.456C26.5692 13.2853 27.0972 13.2 27.6625 13.2C28.4092 13.2 29.0705 13.3387 29.6465 13.616C30.2225 13.8933 30.6758 14.288 31.0065 14.8C31.3372 15.3013 31.5025 15.8987 31.5025 16.592C31.5025 17.3067 31.3265 17.9307 30.9745 18.464C30.6225 18.9973 30.1478 19.408 29.5505 19.696C28.9532 19.984 28.2812 20.128 27.5345 20.128ZM27.4705 18.832C27.9612 18.832 28.3878 18.7413 28.7505 18.56C29.1238 18.3787 29.4172 18.128 29.6305 17.808C29.8438 17.4773 29.9505 17.0933 29.9505 16.656C29.9505 15.9947 29.7212 15.472 29.2625 15.088C28.8038 14.6933 28.1798 14.496 27.3905 14.496C26.8785 14.496 26.4305 14.592 26.0465 14.784C25.6625 14.976 25.3585 15.2373 25.1345 15.568C24.9212 15.888 24.8145 16.256 24.8145 16.672C24.8145 17.056 24.9158 17.4133 25.1185 17.744C25.3212 18.064 25.6198 18.3253 26.0145 18.528C26.4092 18.7307 26.8945 18.832 27.4705 18.832ZM33.9178 20.096C33.6191 20.096 33.3631 19.9947 33.1497 19.792C32.9364 19.5787 32.8298 19.312 32.8298 18.992C32.8298 18.672 32.9364 18.4107 33.1497 18.208C33.3631 18.0053 33.6191 17.904 33.9178 17.904C34.2058 17.904 34.4511 18.0053 34.6538 18.208C34.8671 18.4107 34.9738 18.672 34.9738 18.992C34.9738 19.312 34.8671 19.5787 34.6538 19.792C34.4511 19.9947 34.2058 20.096 33.9178 20.096ZM41.0033 20.128C40.0113 20.128 39.1633 19.9093 38.4593 19.472C37.7553 19.0347 37.2166 18.4053 36.8433 17.584C36.4806 16.752 36.2993 15.7387 36.2993 14.544C36.2993 13.2747 36.5233 12.2027 36.9713 11.328C37.4193 10.4533 38.0433 9.792 38.8433 9.344C39.6433 8.896 40.5606 8.672 41.5953 8.672C42.1286 8.672 42.6353 8.72533 43.1153 8.832C43.6059 8.93867 44.0273 9.104 44.3793 9.328L43.7713 10.576C43.4833 10.3733 43.1526 10.2347 42.7793 10.16C42.4166 10.0853 42.0326 10.048 41.6273 10.048C40.4859 10.048 39.5793 10.4053 38.9073 11.12C38.2353 11.824 37.8993 12.8747 37.8993 14.272C37.8993 14.496 37.9099 14.7627 37.9313 15.072C37.9526 15.3813 38.0059 15.6853 38.0913 15.984L37.5473 15.44C37.7073 14.9493 37.9579 14.5387 38.2993 14.208C38.6513 13.8667 39.0673 13.616 39.5473 13.456C40.0379 13.2853 40.5659 13.2 41.1313 13.2C41.8779 13.2 42.5393 13.3387 43.1153 13.616C43.6913 13.8933 44.1446 14.288 44.4753 14.8C44.8059 15.3013 44.9713 15.8987 44.9713 16.592C44.9713 17.3067 44.7953 17.9307 44.4433 18.464C44.0913 18.9973 43.6166 19.408 43.0193 19.696C42.4219 19.984 41.7499 20.128 41.0033 20.128ZM40.9393 18.832C41.4299 18.832 41.8566 18.7413 42.2193 18.56C42.5926 18.3787 42.8859 18.128 43.0993 17.808C43.3126 17.4773 43.4193 17.0933 43.4193 16.656C43.4193 15.9947 43.1899 15.472 42.7313 15.088C42.2726 14.6933 41.6486 14.496 40.8593 14.496C40.3473 14.496 39.8993 14.592 39.5153 14.784C39.1313 14.976 38.8273 15.2373 38.6033 15.568C38.3899 15.888 38.2833 16.256 38.2833 16.672C38.2833 17.056 38.3846 17.4133 38.5873 17.744C38.7899 18.064 39.0886 18.3253 39.4833 18.528C39.8779 18.7307 40.3633 18.832 40.9393 18.832ZM49.7903 20.128C49.0009 20.128 48.2329 20.0053 47.4863 19.76C46.7503 19.5147 46.1476 19.184 45.6783 18.768L46.4143 17.504C46.7876 17.856 47.2729 18.144 47.8703 18.368C48.4676 18.592 49.1023 18.704 49.7743 18.704C50.6276 18.704 51.2836 18.5227 51.7423 18.16C52.2009 17.7973 52.4303 17.312 52.4303 16.704C52.4303 16.288 52.3289 15.9253 52.1263 15.616C51.9236 15.3067 51.5716 15.072 51.0703 14.912C50.5796 14.7413 49.9023 14.656 49.0383 14.656H46.4943L47.0863 8.8H53.4062V10.192H47.6783L48.5103 9.408L48.0463 14.032L47.2143 13.264H49.3743C50.4943 13.264 51.3956 13.408 52.0783 13.696C52.7609 13.984 53.2569 14.384 53.5663 14.896C53.8756 15.3973 54.0303 15.9787 54.0303 16.64C54.0303 17.28 53.8756 17.8667 53.5663 18.4C53.2569 18.9227 52.7876 19.344 52.1583 19.664C51.5396 19.9733 50.7503 20.128 49.7903 20.128ZM63.8506 20.096C63.0293 20.096 62.2933 19.9147 61.6426 19.552C61.0026 19.1893 60.496 18.6827 60.1226 18.032C59.7493 17.3813 59.5626 16.624 59.5626 15.76C59.5626 14.896 59.7493 14.144 60.1226 13.504C60.496 12.8533 61.0026 12.3467 61.6426 11.984C62.2933 11.6213 63.0293 11.44 63.8506 11.44C64.5653 11.44 65.2106 11.6 65.7866 11.92C66.3626 12.24 66.8213 12.72 67.1626 13.36C67.5146 14 67.6906 14.8 67.6906 15.76C67.6906 16.72 67.52 17.52 67.1786 18.16C66.848 18.8 66.3946 19.2853 65.8186 19.616C65.2426 19.936 64.5866 20.096 63.8506 20.096ZM63.9786 18.752C64.512 18.752 64.992 18.6293 65.4186 18.384C65.856 18.1387 66.1973 17.792 66.4426 17.344C66.6986 16.8853 66.8266 16.3573 66.8266 15.76C66.8266 15.152 66.6986 14.6293 66.4426 14.192C66.1973 13.744 65.856 13.3973 65.4186 13.152C64.992 12.9067 64.512 12.784 63.9786 12.784C63.4346 12.784 62.9493 12.9067 62.5226 13.152C62.096 13.3973 61.7546 13.744 61.4986 14.192C61.2426 14.6293 61.1146 15.152 61.1146 15.76C61.1146 16.3573 61.2426 16.8853 61.4986 17.344C61.7546 17.792 62.096 18.1387 62.5226 18.384C62.9493 18.6293 63.4346 18.752 63.9786 18.752ZM66.8746 20V17.712L66.9706 15.744L66.8106 13.776V8.128H68.3466V20H66.8746ZM75.7489 20.096C75.0235 20.096 74.3675 19.936 73.7809 19.616C73.2049 19.2853 72.7462 18.8 72.4049 18.16C72.0742 17.52 71.9089 16.72 71.9089 15.76C71.9089 14.8 72.0795 14 72.4209 13.36C72.7729 12.72 73.2369 12.24 73.8129 11.92C74.3995 11.6 75.0449 11.44 75.7489 11.44C76.5809 11.44 77.3169 11.6213 77.9569 11.984C78.5969 12.3467 79.1035 12.8533 79.4769 13.504C79.8502 14.144 80.0369 14.896 80.0369 15.76C80.0369 16.624 79.8502 17.3813 79.4769 18.032C79.1035 18.6827 78.5969 19.1893 77.9569 19.552C77.3169 19.9147 76.5809 20.096 75.7489 20.096ZM71.2529 20V8.128H72.7889V13.776L72.6289 15.744L72.7249 17.712V20H71.2529ZM75.6209 18.752C76.1649 18.752 76.6502 18.6293 77.0769 18.384C77.5142 18.1387 77.8555 17.792 78.1009 17.344C78.3569 16.8853 78.4849 16.3573 78.4849 15.76C78.4849 15.152 78.3569 14.6293 78.1009 14.192C77.8555 13.744 77.5142 13.3973 77.0769 13.152C76.6502 12.9067 76.1649 12.784 75.6209 12.784C75.0875 12.784 74.6022 12.9067 74.1649 13.152C73.7382 13.3973 73.3969 13.744 73.1409 14.192C72.8955 14.6293 72.7729 15.152 72.7729 15.76C72.7729 16.3573 72.8955 16.8853 73.1409 17.344C73.3969 17.792 73.7382 18.1387 74.1649 18.384C74.6022 18.6293 75.0875 18.752 75.6209 18.752Z" fill="#7D0019"/>
</svg>
