<svg width="63" height="28" viewBox="0 0 63 28" fill="none" xmlns="http://www.w3.org/2000/svg">
<rect width="63" height="28" rx="3" fill="#F5365C" fill-opacity="0.3"/>
<path d="M12.8044 20V9.44L13.4924 10.192H10.2764V8.8H14.3884V20H12.8044ZM21.4143 20.128C20.5396 20.128 19.7556 19.904 19.0623 19.456C18.3796 19.008 17.8356 18.3573 17.4303 17.504C17.0356 16.6507 16.8383 15.616 16.8383 14.4C16.8383 13.184 17.0356 12.1493 17.4303 11.296C17.8356 10.4427 18.3796 9.792 19.0623 9.344C19.7556 8.896 20.5396 8.672 21.4143 8.672C22.2783 8.672 23.057 8.896 23.7503 9.344C24.4436 9.792 24.9876 10.4427 25.3823 11.296C25.777 12.1493 25.9743 13.184 25.9743 14.4C25.9743 15.616 25.777 16.6507 25.3823 17.504C24.9876 18.3573 24.4436 19.008 23.7503 19.456C23.057 19.904 22.2783 20.128 21.4143 20.128ZM21.4143 18.704C22.001 18.704 22.513 18.544 22.9503 18.224C23.3983 17.904 23.745 17.424 23.9903 16.784C24.2463 16.144 24.3743 15.3493 24.3743 14.4C24.3743 13.4507 24.2463 12.656 23.9903 12.016C23.745 11.376 23.3983 10.896 22.9503 10.576C22.513 10.256 22.001 10.096 21.4143 10.096C20.8276 10.096 20.3103 10.256 19.8623 10.576C19.4143 10.896 19.0623 11.376 18.8063 12.016C18.561 12.656 18.4383 13.4507 18.4383 14.4C18.4383 15.3493 18.561 16.144 18.8063 16.784C19.0623 17.424 19.4143 17.904 19.8623 18.224C20.3103 18.544 20.8276 18.704 21.4143 18.704ZM35.9991 20.096C35.1777 20.096 34.4417 19.9147 33.7911 19.552C33.1511 19.1893 32.6444 18.6827 32.2711 18.032C31.8977 17.3813 31.7111 16.624 31.7111 15.76C31.7111 14.896 31.8977 14.144 32.2711 13.504C32.6444 12.8533 33.1511 12.3467 33.7911 11.984C34.4417 11.6213 35.1777 11.44 35.9991 11.44C36.7137 11.44 37.3591 11.6 37.9351 11.92C38.5111 12.24 38.9697 12.72 39.3111 13.36C39.6631 14 39.8391 14.8 39.8391 15.76C39.8391 16.72 39.6684 17.52 39.3271 18.16C38.9964 18.8 38.5431 19.2853 37.9671 19.616C37.3911 19.936 36.7351 20.096 35.9991 20.096ZM36.1271 18.752C36.6604 18.752 37.1404 18.6293 37.5671 18.384C38.0044 18.1387 38.3457 17.792 38.5911 17.344C38.8471 16.8853 38.9751 16.3573 38.9751 15.76C38.9751 15.152 38.8471 14.6293 38.5911 14.192C38.3457 13.744 38.0044 13.3973 37.5671 13.152C37.1404 12.9067 36.6604 12.784 36.1271 12.784C35.5831 12.784 35.0977 12.9067 34.6711 13.152C34.2444 13.3973 33.9031 13.744 33.6471 14.192C33.3911 14.6293 33.2631 15.152 33.2631 15.76C33.2631 16.3573 33.3911 16.8853 33.6471 17.344C33.9031 17.792 34.2444 18.1387 34.6711 18.384C35.0977 18.6293 35.5831 18.752 36.1271 18.752ZM39.0231 20V17.712L39.1191 15.744L38.9591 13.776V8.128H40.4951V20H39.0231ZM47.8973 20.096C47.172 20.096 46.516 19.936 45.9293 19.616C45.3533 19.2853 44.8946 18.8 44.5533 18.16C44.2226 17.52 44.0573 16.72 44.0573 15.76C44.0573 14.8 44.228 14 44.5693 13.36C44.9213 12.72 45.3853 12.24 45.9613 11.92C46.548 11.6 47.1933 11.44 47.8973 11.44C48.7293 11.44 49.4653 11.6213 50.1053 11.984C50.7453 12.3467 51.252 12.8533 51.6253 13.504C51.9986 14.144 52.1853 14.896 52.1853 15.76C52.1853 16.624 51.9986 17.3813 51.6253 18.032C51.252 18.6827 50.7453 19.1893 50.1053 19.552C49.4653 19.9147 48.7293 20.096 47.8973 20.096ZM43.4013 20V8.128H44.9373V13.776L44.7773 15.744L44.8733 17.712V20H43.4013ZM47.7693 18.752C48.3133 18.752 48.7986 18.6293 49.2253 18.384C49.6626 18.1387 50.004 17.792 50.2493 17.344C50.5053 16.8853 50.6333 16.3573 50.6333 15.76C50.6333 15.152 50.5053 14.6293 50.2493 14.192C50.004 13.744 49.6626 13.3973 49.2253 13.152C48.7986 12.9067 48.3133 12.784 47.7693 12.784C47.236 12.784 46.7506 12.9067 46.3133 13.152C45.8866 13.3973 45.5453 13.744 45.2893 14.192C45.044 14.6293 44.9213 15.152 44.9213 15.76C44.9213 16.3573 45.044 16.8853 45.2893 17.344C45.5453 17.792 45.8866 18.1387 46.3133 18.384C46.7506 18.6293 47.236 18.752 47.7693 18.752Z" fill="#7D0019"/>
</svg>
