<svg width="66" height="28" viewBox="0 0 66 28" fill="none" xmlns="http://www.w3.org/2000/svg">
<rect width="66" height="28" rx="3" fill="#2DCE89" fill-opacity="0.3"/>
<path d="M11.0451 20V18.912L15.6051 14.512C16.0105 14.128 16.3091 13.792 16.5011 13.504C16.7038 13.2053 16.8371 12.9333 16.9011 12.688C16.9758 12.432 17.0131 12.1867 17.0131 11.952C17.0131 11.376 16.8105 10.9227 16.4051 10.592C15.9998 10.2613 15.4078 10.096 14.6291 10.096C14.0318 10.096 13.4931 10.1973 13.0131 10.4C12.5331 10.592 12.1171 10.896 11.7651 11.312L10.6771 10.368C11.1038 9.824 11.6745 9.408 12.3891 9.12C13.1145 8.82133 13.9091 8.672 14.7731 8.672C15.5518 8.672 16.2291 8.8 16.8051 9.056C17.3811 9.30133 17.8238 9.65867 18.1331 10.128C18.4531 10.5973 18.6131 11.152 18.6131 11.792C18.6131 12.1547 18.5651 12.512 18.4691 12.864C18.3731 13.216 18.1918 13.5893 17.9251 13.984C17.6585 14.3787 17.2745 14.8213 16.7731 15.312L12.7091 19.232L12.3251 18.608H19.0931V20H11.0451ZM21.6209 20.096C21.3222 20.096 21.0662 19.9947 20.8529 19.792C20.6395 19.5787 20.5329 19.312 20.5329 18.992C20.5329 18.672 20.6395 18.4107 20.8529 18.208C21.0662 18.0053 21.3222 17.904 21.6209 17.904C21.9089 17.904 22.1542 18.0053 22.3569 18.208C22.5702 18.4107 22.6769 18.672 22.6769 18.992C22.6769 19.312 22.5702 19.5787 22.3569 19.792C22.1542 19.9947 21.9089 20.096 21.6209 20.096ZM24.1701 20V18.912L28.7301 14.512C29.1355 14.128 29.4341 13.792 29.6261 13.504C29.8288 13.2053 29.9621 12.9333 30.0261 12.688C30.1008 12.432 30.1381 12.1867 30.1381 11.952C30.1381 11.376 29.9355 10.9227 29.5301 10.592C29.1248 10.2613 28.5328 10.096 27.7541 10.096C27.1568 10.096 26.6181 10.1973 26.1381 10.4C25.6581 10.592 25.2421 10.896 24.8901 11.312L23.8021 10.368C24.2288 9.824 24.7995 9.408 25.5141 9.12C26.2395 8.82133 27.0341 8.672 27.8981 8.672C28.6768 8.672 29.3541 8.8 29.9301 9.056C30.5061 9.30133 30.9488 9.65867 31.2581 10.128C31.5781 10.5973 31.7381 11.152 31.7381 11.792C31.7381 12.1547 31.6901 12.512 31.5941 12.864C31.4981 13.216 31.3168 13.5893 31.0501 13.984C30.7835 14.3787 30.3995 14.8213 29.8981 15.312L25.8341 19.232L25.4501 18.608H32.2181V20H24.1701ZM35.454 20L40.206 9.472L40.622 10.192H33.966L34.766 9.408V12.192H33.23V8.8H41.678V9.888L37.15 20H35.454ZM50.2894 20L46.5774 11.52H48.1774L51.4734 19.2H50.7054L54.0654 11.52H55.5694L51.8574 20H50.2894Z" fill="#005430"/>
</svg>
