<svg width="78" height="28" viewBox="0 0 78 28" fill="none" xmlns="http://www.w3.org/2000/svg">
<rect width="78" height="28" rx="3" fill="#2DCE89" fill-opacity="0.3"/>
<path d="M10.842 20V18.912L15.402 14.512C15.8073 14.128 16.106 13.792 16.298 13.504C16.5007 13.2053 16.634 12.9333 16.698 12.688C16.7727 12.432 16.81 12.1867 16.81 11.952C16.81 11.376 16.6073 10.9227 16.202 10.592C15.7967 10.2613 15.2047 10.096 14.426 10.096C13.8287 10.096 13.29 10.1973 12.81 10.4C12.33 10.592 11.914 10.896 11.562 11.312L10.474 10.368C10.9007 9.824 11.4713 9.408 12.186 9.12C12.9113 8.82133 13.706 8.672 14.57 8.672C15.3487 8.672 16.026 8.8 16.602 9.056C17.178 9.30133 17.6207 9.65867 17.93 10.128C18.25 10.5973 18.41 11.152 18.41 11.792C18.41 12.1547 18.362 12.512 18.266 12.864C18.17 13.216 17.9887 13.5893 17.722 13.984C17.4553 14.3787 17.0713 14.8213 16.57 15.312L12.506 19.232L12.122 18.608H18.89V20H10.842ZM21.4178 20.096C21.1191 20.096 20.8631 19.9947 20.6497 19.792C20.4364 19.5787 20.3298 19.312 20.3298 18.992C20.3298 18.672 20.4364 18.4107 20.6497 18.208C20.8631 18.0053 21.1191 17.904 21.4178 17.904C21.7058 17.904 21.9511 18.0053 22.1538 18.208C22.3671 18.4107 22.4738 18.672 22.4738 18.992C22.4738 19.312 22.3671 19.5787 22.1538 19.792C21.9511 19.9947 21.7058 20.096 21.4178 20.096ZM27.567 20.128C26.7777 20.128 26.0097 20.0053 25.263 19.76C24.527 19.5147 23.9243 19.184 23.455 18.768L24.191 17.504C24.5643 17.856 25.0497 18.144 25.647 18.368C26.2443 18.592 26.8843 18.704 27.567 18.704C28.399 18.704 29.0443 18.528 29.503 18.176C29.9723 17.8133 30.207 17.328 30.207 16.72C30.207 16.1333 29.983 15.664 29.535 15.312C29.0977 14.9493 28.399 14.768 27.439 14.768H26.543V13.648L29.871 9.552L30.095 10.192H23.967V8.8H31.359V9.888L28.047 13.968L27.215 13.472H27.743C29.0977 13.472 30.111 13.776 30.783 14.384C31.4657 14.992 31.807 15.7653 31.807 16.704C31.807 17.3333 31.6523 17.9093 31.343 18.432C31.0337 18.9547 30.5643 19.3707 29.935 19.68C29.3163 19.9787 28.527 20.128 27.567 20.128ZM33.0451 20V18.912L37.6051 14.512C38.0105 14.128 38.3091 13.792 38.5011 13.504C38.7038 13.2053 38.8371 12.9333 38.9011 12.688C38.9758 12.432 39.0131 12.1867 39.0131 11.952C39.0131 11.376 38.8105 10.9227 38.4051 10.592C37.9998 10.2613 37.4078 10.096 36.6291 10.096C36.0318 10.096 35.4931 10.1973 35.0131 10.4C34.5331 10.592 34.1171 10.896 33.7651 11.312L32.6771 10.368C33.1038 9.824 33.6745 9.408 34.3891 9.12C35.1145 8.82133 35.9091 8.672 36.7731 8.672C37.5518 8.672 38.2291 8.8 38.8051 9.056C39.3811 9.30133 39.8238 9.65867 40.1331 10.128C40.4531 10.5973 40.6131 11.152 40.6131 11.792C40.6131 12.1547 40.5651 12.512 40.4691 12.864C40.3731 13.216 40.1918 13.5893 39.9251 13.984C39.6585 14.3787 39.2745 14.8213 38.7731 15.312L34.7091 19.232L34.3251 18.608H41.0931V20H33.0451ZM50.8975 20.096C50.0762 20.096 49.3402 19.9147 48.6895 19.552C48.0495 19.1893 47.5428 18.6827 47.1695 18.032C46.7962 17.3813 46.6095 16.624 46.6095 15.76C46.6095 14.896 46.7962 14.144 47.1695 13.504C47.5428 12.8533 48.0495 12.3467 48.6895 11.984C49.3402 11.6213 50.0762 11.44 50.8975 11.44C51.6122 11.44 52.2575 11.6 52.8335 11.92C53.4095 12.24 53.8682 12.72 54.2095 13.36C54.5615 14 54.7375 14.8 54.7375 15.76C54.7375 16.72 54.5668 17.52 54.2255 18.16C53.8948 18.8 53.4415 19.2853 52.8655 19.616C52.2895 19.936 51.6335 20.096 50.8975 20.096ZM51.0255 18.752C51.5588 18.752 52.0388 18.6293 52.4655 18.384C52.9028 18.1387 53.2442 17.792 53.4895 17.344C53.7455 16.8853 53.8735 16.3573 53.8735 15.76C53.8735 15.152 53.7455 14.6293 53.4895 14.192C53.2442 13.744 52.9028 13.3973 52.4655 13.152C52.0388 12.9067 51.5588 12.784 51.0255 12.784C50.4815 12.784 49.9962 12.9067 49.5695 13.152C49.1428 13.3973 48.8015 13.744 48.5455 14.192C48.2895 14.6293 48.1615 15.152 48.1615 15.76C48.1615 16.3573 48.2895 16.8853 48.5455 17.344C48.8015 17.792 49.1428 18.1387 49.5695 18.384C49.9962 18.6293 50.4815 18.752 51.0255 18.752ZM53.9215 20V17.712L54.0175 15.744L53.8575 13.776V8.128H55.3935V20H53.9215ZM62.7958 20.096C62.0704 20.096 61.4144 19.936 60.8278 19.616C60.2518 19.2853 59.7931 18.8 59.4518 18.16C59.1211 17.52 58.9557 16.72 58.9557 15.76C58.9557 14.8 59.1264 14 59.4678 13.36C59.8198 12.72 60.2838 12.24 60.8598 11.92C61.4464 11.6 62.0918 11.44 62.7958 11.44C63.6278 11.44 64.3638 11.6213 65.0038 11.984C65.6438 12.3467 66.1504 12.8533 66.5238 13.504C66.8971 14.144 67.0838 14.896 67.0838 15.76C67.0838 16.624 66.8971 17.3813 66.5238 18.032C66.1504 18.6827 65.6438 19.1893 65.0038 19.552C64.3638 19.9147 63.6278 20.096 62.7958 20.096ZM58.2998 20V8.128H59.8358V13.776L59.6758 15.744L59.7718 17.712V20H58.2998ZM62.6678 18.752C63.2118 18.752 63.6971 18.6293 64.1238 18.384C64.5611 18.1387 64.9024 17.792 65.1478 17.344C65.4038 16.8853 65.5318 16.3573 65.5318 15.76C65.5318 15.152 65.4038 14.6293 65.1478 14.192C64.9024 13.744 64.5611 13.3973 64.1238 13.152C63.6971 12.9067 63.2118 12.784 62.6678 12.784C62.1344 12.784 61.6491 12.9067 61.2118 13.152C60.7851 13.3973 60.4438 13.744 60.1878 14.192C59.9424 14.6293 59.8198 15.152 59.8198 15.76C59.8198 16.3573 59.9424 16.8853 60.1878 17.344C60.4438 17.792 60.7851 18.1387 61.2118 18.384C61.6491 18.6293 62.1344 18.752 62.6678 18.752Z" fill="#005430"/>
</svg>
