<svg width="67" height="28" viewBox="0 0 67 28" fill="none" xmlns="http://www.w3.org/2000/svg">
<rect width="67" height="28" rx="3" fill="#F5365C" fill-opacity="0.3"/>
<path d="M14.6764 20.128C13.887 20.128 13.119 20.0053 12.3724 19.76C11.6364 19.5147 11.0337 19.184 10.5644 18.768L11.3004 17.504C11.6737 17.856 12.159 18.144 12.7564 18.368C13.3537 18.592 13.9937 18.704 14.6764 18.704C15.5084 18.704 16.1537 18.528 16.6124 18.176C17.0817 17.8133 17.3164 17.328 17.3164 16.72C17.3164 16.1333 17.0924 15.664 16.6444 15.312C16.207 14.9493 15.5084 14.768 14.5484 14.768H13.6524V13.648L16.9804 9.552L17.2044 10.192H11.0764V8.8H18.4684V9.888L15.1564 13.968L14.3244 13.472H14.8524C16.207 13.472 17.2204 13.776 17.8924 14.384C18.575 14.992 18.9164 15.7653 18.9164 16.704C18.9164 17.3333 18.7617 17.9093 18.4524 18.432C18.143 18.9547 17.6737 19.3707 17.0444 19.68C16.4257 19.9787 15.6364 20.128 14.6764 20.128ZM21.4646 20.096C21.166 20.096 20.91 19.9947 20.6966 19.792C20.4833 19.5787 20.3766 19.312 20.3766 18.992C20.3766 18.672 20.4833 18.4107 20.6966 18.208C20.91 18.0053 21.166 17.904 21.4646 17.904C21.7526 17.904 21.998 18.0053 22.2006 18.208C22.414 18.4107 22.5206 18.672 22.5206 18.992C22.5206 19.312 22.414 19.5787 22.2006 19.792C21.998 19.9947 21.7526 20.096 21.4646 20.096ZM27.6139 20.128C26.8245 20.128 26.0565 20.0053 25.3099 19.76C24.5739 19.5147 23.9712 19.184 23.5019 18.768L24.2379 17.504C24.6112 17.856 25.0965 18.144 25.6939 18.368C26.2912 18.592 26.9312 18.704 27.6139 18.704C28.4459 18.704 29.0912 18.528 29.5499 18.176C30.0192 17.8133 30.2539 17.328 30.2539 16.72C30.2539 16.1333 30.0299 15.664 29.5819 15.312C29.1445 14.9493 28.4459 14.768 27.4859 14.768H26.5899V13.648L29.9179 9.552L30.1419 10.192H24.0139V8.8H31.4059V9.888L28.0939 13.968L27.2619 13.472H27.7899C29.1445 13.472 30.1579 13.776 30.8299 14.384C31.5125 14.992 31.8539 15.7653 31.8539 16.704C31.8539 17.3333 31.6992 17.9093 31.3899 18.432C31.0805 18.9547 30.6112 19.3707 29.9819 19.68C29.3632 19.9787 28.5739 20.128 27.6139 20.128ZM33.1861 17.248V16.128L38.9141 8.8H40.6421L34.9621 16.128L34.1461 15.872H43.0901V17.248H33.1861ZM39.4101 20V17.248L39.4581 15.872V13.44H40.9621V20H39.4101ZM51.2581 20L47.5461 11.52H49.1461L52.4421 19.2H51.6741L55.0341 11.52H56.5381L52.8261 20H51.2581Z" fill="#7D0019"/>
</svg>
