<svg width="59" height="28" viewBox="0 0 59 28" fill="none" xmlns="http://www.w3.org/2000/svg">
<rect width="59" height="28" rx="3" fill="#2DCE89" fill-opacity="0.3"/>
<path d="M14.5983 20.128C13.8089 20.128 13.0409 20.0053 12.2943 19.76C11.5583 19.5147 10.9556 19.184 10.4863 18.768L11.2223 17.504C11.5956 17.856 12.0809 18.144 12.6783 18.368C13.2756 18.592 13.9156 18.704 14.5983 18.704C15.4303 18.704 16.0756 18.528 16.5343 18.176C17.0036 17.8133 17.2383 17.328 17.2383 16.72C17.2383 16.1333 17.0143 15.664 16.5663 15.312C16.1289 14.9493 15.4303 14.768 14.4703 14.768H13.5743V13.648L16.9023 9.552L17.1263 10.192H10.9983V8.8H18.3903V9.888L15.0783 13.968L14.2463 13.472H14.7743C16.1289 13.472 17.1423 13.776 17.8143 14.384C18.4969 14.992 18.8383 15.7653 18.8383 16.704C18.8383 17.3333 18.6836 17.9093 18.3743 18.432C18.0649 18.9547 17.5956 19.3707 16.9663 19.68C16.3476 19.9787 15.5583 20.128 14.5983 20.128ZM24.9065 20.128C24.0318 20.128 23.2478 19.904 22.5545 19.456C21.8718 19.008 21.3278 18.3573 20.9225 17.504C20.5278 16.6507 20.3305 15.616 20.3305 14.4C20.3305 13.184 20.5278 12.1493 20.9225 11.296C21.3278 10.4427 21.8718 9.792 22.5545 9.344C23.2478 8.896 24.0318 8.672 24.9065 8.672C25.7705 8.672 26.5492 8.896 27.2425 9.344C27.9358 9.792 28.4798 10.4427 28.8745 11.296C29.2692 12.1493 29.4665 13.184 29.4665 14.4C29.4665 15.616 29.2692 16.6507 28.8745 17.504C28.4798 18.3573 27.9358 19.008 27.2425 19.456C26.5492 19.904 25.7705 20.128 24.9065 20.128ZM24.9065 18.704C25.4932 18.704 26.0052 18.544 26.4425 18.224C26.8905 17.904 27.2372 17.424 27.4825 16.784C27.7385 16.144 27.8665 15.3493 27.8665 14.4C27.8665 13.4507 27.7385 12.656 27.4825 12.016C27.2372 11.376 26.8905 10.896 26.4425 10.576C26.0052 10.256 25.4932 10.096 24.9065 10.096C24.3198 10.096 23.8025 10.256 23.3545 10.576C22.9065 10.896 22.5545 11.376 22.2985 12.016C22.0532 12.656 21.9305 13.4507 21.9305 14.4C21.9305 15.3493 22.0532 16.144 22.2985 16.784C22.5545 17.424 22.9065 17.904 23.3545 18.224C23.8025 18.544 24.3198 18.704 24.9065 18.704ZM33.6878 13.216C33.1438 13.216 32.6584 13.104 32.2318 12.88C31.8051 12.656 31.4691 12.3467 31.2238 11.952C30.9784 11.5573 30.8558 11.1147 30.8558 10.624C30.8558 10.1227 30.9784 9.68 31.2238 9.296C31.4691 8.90133 31.8051 8.59733 32.2318 8.384C32.6584 8.16 33.1438 8.048 33.6878 8.048C34.2424 8.048 34.7331 8.16 35.1598 8.384C35.5864 8.59733 35.9171 8.90133 36.1518 9.296C36.3971 9.68 36.5198 10.1227 36.5198 10.624C36.5198 11.1147 36.3971 11.5573 36.1518 11.952C35.9171 12.3467 35.5864 12.656 35.1598 12.88C34.7331 13.104 34.2424 13.216 33.6878 13.216ZM33.6878 12.288C34.2104 12.288 34.6318 12.1333 34.9518 11.824C35.2824 11.5147 35.4478 11.1147 35.4478 10.624C35.4478 10.1227 35.2824 9.72267 34.9518 9.424C34.6318 9.11467 34.2104 8.96 33.6878 8.96C33.1758 8.96 32.7544 9.11467 32.4238 9.424C32.0931 9.72267 31.9278 10.1227 31.9278 10.624C31.9278 11.104 32.0931 11.504 32.4238 11.824C32.7544 12.1333 33.1758 12.288 33.6878 12.288ZM43.7193 20.128C42.8659 20.128 42.0766 19.9893 41.3513 19.712C40.6366 19.424 40.0126 19.024 39.4793 18.512C38.9566 17.9893 38.5459 17.3813 38.2473 16.688C37.9486 15.9947 37.7993 15.232 37.7993 14.4C37.7993 13.568 37.9486 12.8053 38.2473 12.112C38.5459 11.4187 38.9619 10.816 39.4953 10.304C40.0286 9.78133 40.6526 9.38133 41.3673 9.104C42.0926 8.816 42.8819 8.672 43.7353 8.672C44.5993 8.672 45.3939 8.82133 46.1193 9.12C46.8553 9.408 47.4793 9.84 47.9913 10.416L46.9513 11.424C46.5246 10.976 46.0446 10.6453 45.5113 10.432C44.9779 10.208 44.4073 10.096 43.7993 10.096C43.1699 10.096 42.5833 10.2027 42.0393 10.416C41.5059 10.6293 41.0419 10.928 40.6473 11.312C40.2526 11.696 39.9433 12.1547 39.7193 12.688C39.5059 13.2107 39.3993 13.7813 39.3993 14.4C39.3993 15.0187 39.5059 15.5947 39.7193 16.128C39.9433 16.6507 40.2526 17.104 40.6473 17.488C41.0419 17.872 41.5059 18.1707 42.0393 18.384C42.5833 18.5973 43.1699 18.704 43.7993 18.704C44.4073 18.704 44.9779 18.5973 45.5113 18.384C46.0446 18.16 46.5246 17.8187 46.9513 17.36L47.9913 18.368C47.4793 18.944 46.8553 19.3813 46.1193 19.68C45.3939 19.9787 44.5939 20.128 43.7193 20.128Z" fill="#005430"/>
</svg>
