<svg width="59" height="28" viewBox="0 0 59 28" fill="none" xmlns="http://www.w3.org/2000/svg">
<rect width="59" height="28" rx="3" fill="#2DCE89" fill-opacity="0.3"/>
<path d="M10.6939 17.248V16.128L16.4219 8.8H18.1499L12.4699 16.128L11.6539 15.872H20.5979V17.248H10.6939ZM16.9179 20V17.248L16.9659 15.872V13.44H18.4699V20H16.9179ZM25.0797 8.672C26.093 8.672 26.9464 8.89067 27.6397 9.328C28.3437 9.76533 28.877 10.4 29.2397 11.232C29.6024 12.0533 29.7837 13.0613 29.7837 14.256C29.7837 15.5253 29.5597 16.5973 29.1117 17.472C28.6637 18.3467 28.045 19.008 27.2557 19.456C26.4664 19.904 25.5437 20.128 24.4877 20.128C23.965 20.128 23.4584 20.0747 22.9677 19.968C22.4877 19.8613 22.0664 19.696 21.7037 19.472L22.3117 18.224C22.6104 18.416 22.941 18.5547 23.3037 18.64C23.677 18.7147 24.0664 18.752 24.4717 18.752C25.6024 18.752 26.5037 18.4 27.1757 17.696C27.8477 16.9813 28.1837 15.9253 28.1837 14.528C28.1837 14.304 28.173 14.0373 28.1517 13.728C28.1304 13.4187 28.0824 13.1147 28.0077 12.816L28.5357 13.36C28.3864 13.8507 28.1357 14.2667 27.7837 14.608C27.4424 14.9387 27.0264 15.1893 26.5357 15.36C26.0557 15.52 25.5277 15.6 24.9517 15.6C24.2157 15.6 23.5597 15.4613 22.9837 15.184C22.4077 14.9067 21.9544 14.5173 21.6237 14.016C21.293 13.504 21.1277 12.9013 21.1277 12.208C21.1277 11.4827 21.2984 10.8587 21.6397 10.336C21.9917 9.80267 22.4664 9.392 23.0637 9.104C23.6717 8.816 24.3437 8.672 25.0797 8.672ZM25.1437 9.968C24.6637 9.968 24.237 10.0587 23.8637 10.24C23.4904 10.4213 23.197 10.672 22.9837 10.992C22.781 11.312 22.6797 11.696 22.6797 12.144C22.6797 12.8053 22.909 13.3333 23.3677 13.728C23.8264 14.112 24.445 14.304 25.2237 14.304C25.7357 14.304 26.1837 14.208 26.5677 14.016C26.9624 13.824 27.2664 13.5627 27.4797 13.232C27.7037 12.9013 27.8157 12.5333 27.8157 12.128C27.8157 11.7333 27.7144 11.376 27.5117 11.056C27.309 10.736 27.0104 10.4747 26.6157 10.272C26.221 10.0693 25.7304 9.968 25.1437 9.968ZM34.0081 13.216C33.4641 13.216 32.9787 13.104 32.5521 12.88C32.1254 12.656 31.7894 12.3467 31.5441 11.952C31.2987 11.5573 31.1761 11.1147 31.1761 10.624C31.1761 10.1227 31.2987 9.68 31.5441 9.296C31.7894 8.90133 32.1254 8.59733 32.5521 8.384C32.9787 8.16 33.4641 8.048 34.0081 8.048C34.5627 8.048 35.0534 8.16 35.4801 8.384C35.9067 8.59733 36.2374 8.90133 36.4721 9.296C36.7174 9.68 36.8401 10.1227 36.8401 10.624C36.8401 11.1147 36.7174 11.5573 36.4721 11.952C36.2374 12.3467 35.9067 12.656 35.4801 12.88C35.0534 13.104 34.5627 13.216 34.0081 13.216ZM34.0081 12.288C34.5307 12.288 34.9521 12.1333 35.2721 11.824C35.6027 11.5147 35.7681 11.1147 35.7681 10.624C35.7681 10.1227 35.6027 9.72267 35.2721 9.424C34.9521 9.11467 34.5307 8.96 34.0081 8.96C33.4961 8.96 33.0747 9.11467 32.7441 9.424C32.4134 9.72267 32.2481 10.1227 32.2481 10.624C32.2481 11.104 32.4134 11.504 32.7441 11.824C33.0747 12.1333 33.4961 12.288 34.0081 12.288ZM44.0396 20.128C43.1862 20.128 42.3969 19.9893 41.6716 19.712C40.9569 19.424 40.3329 19.024 39.7996 18.512C39.2769 17.9893 38.8662 17.3813 38.5676 16.688C38.2689 15.9947 38.1196 15.232 38.1196 14.4C38.1196 13.568 38.2689 12.8053 38.5676 12.112C38.8662 11.4187 39.2822 10.816 39.8156 10.304C40.3489 9.78133 40.9729 9.38133 41.6876 9.104C42.4129 8.816 43.2022 8.672 44.0556 8.672C44.9196 8.672 45.7142 8.82133 46.4396 9.12C47.1756 9.408 47.7996 9.84 48.3116 10.416L47.2716 11.424C46.8449 10.976 46.3649 10.6453 45.8316 10.432C45.2982 10.208 44.7276 10.096 44.1196 10.096C43.4902 10.096 42.9036 10.2027 42.3596 10.416C41.8262 10.6293 41.3622 10.928 40.9676 11.312C40.5729 11.696 40.2636 12.1547 40.0396 12.688C39.8262 13.2107 39.7196 13.7813 39.7196 14.4C39.7196 15.0187 39.8262 15.5947 40.0396 16.128C40.2636 16.6507 40.5729 17.104 40.9676 17.488C41.3622 17.872 41.8262 18.1707 42.3596 18.384C42.9036 18.5973 43.4902 18.704 44.1196 18.704C44.7276 18.704 45.2982 18.5973 45.8316 18.384C46.3649 18.16 46.8449 17.8187 47.2716 17.36L48.3116 18.368C47.7996 18.944 47.1756 19.3813 46.4396 19.68C45.7142 19.9787 44.9142 20.128 44.0396 20.128Z" fill="#005430"/>
</svg>
