<svg width="80" height="28" viewBox="0 0 80 28" fill="none" xmlns="http://www.w3.org/2000/svg">
<rect width="80" height="28" rx="3" fill="#F5365C" fill-opacity="0.3"/>
<path d="M14.4153 20.128C13.6259 20.128 12.8579 20.0053 12.1113 19.76C11.3753 19.5147 10.7726 19.184 10.3033 18.768L11.0393 17.504C11.4126 17.856 11.8979 18.144 12.4953 18.368C13.0926 18.592 13.7273 18.704 14.3993 18.704C15.2526 18.704 15.9086 18.5227 16.3673 18.16C16.8259 17.7973 17.0553 17.312 17.0553 16.704C17.0553 16.288 16.9539 15.9253 16.7513 15.616C16.5486 15.3067 16.1966 15.072 15.6953 14.912C15.2046 14.7413 14.5273 14.656 13.6633 14.656H11.1193L11.7113 8.8H18.0312V10.192H12.3033L13.1353 9.408L12.6713 14.032L11.8393 13.264H13.9993C15.1193 13.264 16.0206 13.408 16.7033 13.696C17.3859 13.984 17.8819 14.384 18.1913 14.896C18.5006 15.3973 18.6553 15.9787 18.6553 16.64C18.6553 17.28 18.5006 17.8667 18.1913 18.4C17.8819 18.9227 17.4126 19.344 16.7833 19.664C16.1646 19.9733 15.3753 20.128 14.4153 20.128ZM21.0428 20.096C20.7441 20.096 20.4881 19.9947 20.2747 19.792C20.0614 19.5787 19.9548 19.312 19.9548 18.992C19.9548 18.672 20.0614 18.4107 20.2747 18.208C20.4881 18.0053 20.7441 17.904 21.0428 17.904C21.3308 17.904 21.5761 18.0053 21.7788 18.208C21.9921 18.4107 22.0988 18.672 22.0988 18.992C22.0988 19.312 21.9921 19.5787 21.7788 19.792C21.5761 19.9947 21.3308 20.096 21.0428 20.096ZM23.3111 17.248V16.128L29.0391 8.8H30.7671L25.0871 16.128L24.2711 15.872H33.2151V17.248H23.3111ZM29.5351 20V17.248L29.5831 15.872V13.44H31.0871V20H29.5351ZM38.6985 20.128C37.7918 20.128 37.0078 19.9947 36.3465 19.728C35.6852 19.4613 35.1732 19.0827 34.8105 18.592C34.4478 18.0907 34.2665 17.504 34.2665 16.832C34.2665 16.1707 34.4372 15.6107 34.7785 15.152C35.1305 14.6827 35.6372 14.3307 36.2985 14.096C36.9598 13.8507 37.7598 13.728 38.6985 13.728C39.6372 13.728 40.4372 13.8507 41.0985 14.096C41.7705 14.3307 42.2825 14.6827 42.6345 15.152C42.9865 15.6213 43.1625 16.1813 43.1625 16.832C43.1625 17.504 42.9812 18.0907 42.6185 18.592C42.2558 19.0827 41.7385 19.4613 41.0665 19.728C40.3945 19.9947 39.6052 20.128 38.6985 20.128ZM38.6985 18.832C39.5945 18.832 40.2932 18.6507 40.7945 18.288C41.3065 17.9147 41.5625 17.4133 41.5625 16.784C41.5625 16.1653 41.3065 15.68 40.7945 15.328C40.2932 14.9653 39.5945 14.784 38.6985 14.784C37.8132 14.784 37.1198 14.9653 36.6185 15.328C36.1172 15.68 35.8665 16.1653 35.8665 16.784C35.8665 17.4133 36.1172 17.9147 36.6185 18.288C37.1198 18.6507 37.8132 18.832 38.6985 18.832ZM38.6985 14.592C37.8452 14.592 37.1198 14.48 36.5225 14.256C35.9252 14.0213 35.4665 13.6907 35.1465 13.264C34.8265 12.8267 34.6665 12.3093 34.6665 11.712C34.6665 11.0827 34.8318 10.544 35.1625 10.096C35.5038 9.63733 35.9785 9.28533 36.5865 9.04C37.1945 8.79467 37.8985 8.672 38.6985 8.672C39.5092 8.672 40.2185 8.79467 40.8265 9.04C41.4345 9.28533 41.9092 9.63733 42.2505 10.096C42.5918 10.544 42.7625 11.0827 42.7625 11.712C42.7625 12.3093 42.6025 12.8267 42.2825 13.264C41.9625 13.6907 41.4985 14.0213 40.8905 14.256C40.2825 14.48 39.5518 14.592 38.6985 14.592ZM38.6985 13.568C39.4772 13.568 40.0852 13.408 40.5225 13.088C40.9705 12.768 41.1945 12.3307 41.1945 11.776C41.1945 11.2107 40.9652 10.768 40.5065 10.448C40.0478 10.128 39.4452 9.968 38.6985 9.968C37.9518 9.968 37.3545 10.128 36.9065 10.448C36.4692 10.768 36.2505 11.2107 36.2505 11.776C36.2505 12.3307 36.4638 12.768 36.8905 13.088C37.3278 13.408 37.9305 13.568 38.6985 13.568ZM53.1163 20.096C52.2949 20.096 51.5589 19.9147 50.9083 19.552C50.2683 19.1893 49.7616 18.6827 49.3883 18.032C49.0149 17.3813 48.8283 16.624 48.8283 15.76C48.8283 14.896 49.0149 14.144 49.3883 13.504C49.7616 12.8533 50.2683 12.3467 50.9083 11.984C51.5589 11.6213 52.2949 11.44 53.1163 11.44C53.8309 11.44 54.4763 11.6 55.0523 11.92C55.6283 12.24 56.0869 12.72 56.4283 13.36C56.7803 14 56.9563 14.8 56.9563 15.76C56.9563 16.72 56.7856 17.52 56.4443 18.16C56.1136 18.8 55.6603 19.2853 55.0843 19.616C54.5083 19.936 53.8523 20.096 53.1163 20.096ZM53.2443 18.752C53.7776 18.752 54.2576 18.6293 54.6843 18.384C55.1216 18.1387 55.4629 17.792 55.7083 17.344C55.9643 16.8853 56.0923 16.3573 56.0923 15.76C56.0923 15.152 55.9643 14.6293 55.7083 14.192C55.4629 13.744 55.1216 13.3973 54.6843 13.152C54.2576 12.9067 53.7776 12.784 53.2443 12.784C52.7003 12.784 52.2149 12.9067 51.7883 13.152C51.3616 13.3973 51.0203 13.744 50.7643 14.192C50.5083 14.6293 50.3803 15.152 50.3803 15.76C50.3803 16.3573 50.5083 16.8853 50.7643 17.344C51.0203 17.792 51.3616 18.1387 51.7883 18.384C52.2149 18.6293 52.7003 18.752 53.2443 18.752ZM56.1403 20V17.712L56.2362 15.744L56.0763 13.776V8.128H57.6123V20H56.1403ZM65.0145 20.096C64.2892 20.096 63.6332 19.936 63.0465 19.616C62.4705 19.2853 62.0118 18.8 61.6705 18.16C61.3398 17.52 61.1745 16.72 61.1745 15.76C61.1745 14.8 61.3452 14 61.6865 13.36C62.0385 12.72 62.5025 12.24 63.0785 11.92C63.6652 11.6 64.3105 11.44 65.0145 11.44C65.8465 11.44 66.5825 11.6213 67.2225 11.984C67.8625 12.3467 68.3692 12.8533 68.7425 13.504C69.1158 14.144 69.3025 14.896 69.3025 15.76C69.3025 16.624 69.1158 17.3813 68.7425 18.032C68.3692 18.6827 67.8625 19.1893 67.2225 19.552C66.5825 19.9147 65.8465 20.096 65.0145 20.096ZM60.5185 20V8.128H62.0545V13.776L61.8945 15.744L61.9905 17.712V20H60.5185ZM64.8865 18.752C65.4305 18.752 65.9158 18.6293 66.3425 18.384C66.7798 18.1387 67.1212 17.792 67.3665 17.344C67.6225 16.8853 67.7505 16.3573 67.7505 15.76C67.7505 15.152 67.6225 14.6293 67.3665 14.192C67.1212 13.744 66.7798 13.3973 66.3425 13.152C65.9158 12.9067 65.4305 12.784 64.8865 12.784C64.3532 12.784 63.8678 12.9067 63.4305 13.152C63.0038 13.3973 62.6625 13.744 62.4065 14.192C62.1612 14.6293 62.0385 15.152 62.0385 15.76C62.0385 16.3573 62.1612 16.8853 62.4065 17.344C62.6625 17.792 63.0038 18.1387 63.4305 18.384C63.8678 18.6293 64.3532 18.752 64.8865 18.752Z" fill="#7D0019"/>
</svg>
