<svg width="77" height="28" viewBox="0 0 77 28" fill="none" xmlns="http://www.w3.org/2000/svg">
<rect width="77" height="28" rx="3" fill="#11CDEF" fill-opacity="0.3"/>
<path d="M15.9173 20.128C14.9253 20.128 14.0773 19.9093 13.3733 19.472C12.6693 19.0347 12.1306 18.4053 11.7573 17.584C11.3946 16.752 11.2133 15.7387 11.2133 14.544C11.2133 13.2747 11.4373 12.2027 11.8853 11.328C12.3333 10.4533 12.9573 9.792 13.7573 9.344C14.5573 8.896 15.4746 8.672 16.5093 8.672C17.0426 8.672 17.5493 8.72533 18.0293 8.832C18.52 8.93867 18.9413 9.104 19.2933 9.328L18.6853 10.576C18.3973 10.3733 18.0666 10.2347 17.6933 10.16C17.3306 10.0853 16.9466 10.048 16.5413 10.048C15.4 10.048 14.4933 10.4053 13.8213 11.12C13.1493 11.824 12.8133 12.8747 12.8133 14.272C12.8133 14.496 12.824 14.7627 12.8453 15.072C12.8666 15.3813 12.92 15.6853 13.0053 15.984L12.4613 15.44C12.6213 14.9493 12.872 14.5387 13.2133 14.208C13.5653 13.8667 13.9813 13.616 14.4613 13.456C14.952 13.2853 15.48 13.2 16.0453 13.2C16.792 13.2 17.4533 13.3387 18.0293 13.616C18.6053 13.8933 19.0586 14.288 19.3893 14.8C19.72 15.3013 19.8853 15.8987 19.8853 16.592C19.8853 17.3067 19.7093 17.9307 19.3573 18.464C19.0053 18.9973 18.5306 19.408 17.9333 19.696C17.336 19.984 16.664 20.128 15.9173 20.128ZM15.8533 18.832C16.344 18.832 16.7706 18.7413 17.1333 18.56C17.5066 18.3787 17.8 18.128 18.0133 17.808C18.2266 17.4773 18.3333 17.0933 18.3333 16.656C18.3333 15.9947 18.104 15.472 17.6453 15.088C17.1866 14.6933 16.5626 14.496 15.7733 14.496C15.2613 14.496 14.8133 14.592 14.4293 14.784C14.0453 14.976 13.7413 15.2373 13.5173 15.568C13.304 15.888 13.1973 16.256 13.1973 16.672C13.1973 17.056 13.2986 17.4133 13.5013 17.744C13.704 18.064 14.0026 18.3253 14.3973 18.528C14.792 18.7307 15.2773 18.832 15.8533 18.832ZM25.7923 20.128C24.8003 20.128 23.9523 19.9093 23.2483 19.472C22.5443 19.0347 22.0056 18.4053 21.6323 17.584C21.2696 16.752 21.0883 15.7387 21.0883 14.544C21.0883 13.2747 21.3123 12.2027 21.7603 11.328C22.2083 10.4533 22.8323 9.792 23.6323 9.344C24.4323 8.896 25.3496 8.672 26.3843 8.672C26.9176 8.672 27.4243 8.72533 27.9043 8.832C28.395 8.93867 28.8163 9.104 29.1683 9.328L28.5603 10.576C28.2723 10.3733 27.9416 10.2347 27.5683 10.16C27.2056 10.0853 26.8216 10.048 26.4163 10.048C25.275 10.048 24.3683 10.4053 23.6963 11.12C23.0243 11.824 22.6883 12.8747 22.6883 14.272C22.6883 14.496 22.699 14.7627 22.7203 15.072C22.7416 15.3813 22.795 15.6853 22.8803 15.984L22.3363 15.44C22.4963 14.9493 22.747 14.5387 23.0883 14.208C23.4403 13.8667 23.8563 13.616 24.3363 13.456C24.827 13.2853 25.355 13.2 25.9203 13.2C26.667 13.2 27.3283 13.3387 27.9043 13.616C28.4803 13.8933 28.9336 14.288 29.2643 14.8C29.595 15.3013 29.7603 15.8987 29.7603 16.592C29.7603 17.3067 29.5843 17.9307 29.2323 18.464C28.8803 18.9973 28.4056 19.408 27.8083 19.696C27.211 19.984 26.539 20.128 25.7923 20.128ZM25.7283 18.832C26.219 18.832 26.6456 18.7413 27.0083 18.56C27.3816 18.3787 27.675 18.128 27.8883 17.808C28.1016 17.4773 28.2083 17.0933 28.2083 16.656C28.2083 15.9947 27.979 15.472 27.5203 15.088C27.0616 14.6933 26.4376 14.496 25.6483 14.496C25.1363 14.496 24.6883 14.592 24.3043 14.784C23.9203 14.976 23.6163 15.2373 23.3923 15.568C23.179 15.888 23.0723 16.256 23.0723 16.672C23.0723 17.056 23.1736 17.4133 23.3763 17.744C23.579 18.064 23.8776 18.3253 24.2723 18.528C24.667 18.7307 25.1523 18.832 25.7283 18.832ZM30.8033 17.248V16.128L36.5313 8.8H38.2593L32.5793 16.128L31.7633 15.872H40.7073V17.248H30.8033ZM37.0273 20V17.248L37.0753 15.872V13.44H38.5793V20H37.0273ZM46.1907 20.128C45.284 20.128 44.5 19.9947 43.8387 19.728C43.1774 19.4613 42.6654 19.0827 42.3027 18.592C41.94 18.0907 41.7587 17.504 41.7587 16.832C41.7587 16.1707 41.9294 15.6107 42.2707 15.152C42.6227 14.6827 43.1294 14.3307 43.7907 14.096C44.452 13.8507 45.252 13.728 46.1907 13.728C47.1294 13.728 47.9294 13.8507 48.5907 14.096C49.2627 14.3307 49.7747 14.6827 50.1267 15.152C50.4787 15.6213 50.6547 16.1813 50.6547 16.832C50.6547 17.504 50.4734 18.0907 50.1107 18.592C49.748 19.0827 49.2307 19.4613 48.5587 19.728C47.8867 19.9947 47.0974 20.128 46.1907 20.128ZM46.1907 18.832C47.0867 18.832 47.7854 18.6507 48.2867 18.288C48.7987 17.9147 49.0547 17.4133 49.0547 16.784C49.0547 16.1653 48.7987 15.68 48.2867 15.328C47.7854 14.9653 47.0867 14.784 46.1907 14.784C45.3054 14.784 44.612 14.9653 44.1107 15.328C43.6094 15.68 43.3587 16.1653 43.3587 16.784C43.3587 17.4133 43.6094 17.9147 44.1107 18.288C44.612 18.6507 45.3054 18.832 46.1907 18.832ZM46.1907 14.592C45.3374 14.592 44.612 14.48 44.0147 14.256C43.4174 14.0213 42.9587 13.6907 42.6387 13.264C42.3187 12.8267 42.1587 12.3093 42.1587 11.712C42.1587 11.0827 42.324 10.544 42.6547 10.096C42.996 9.63733 43.4707 9.28533 44.0787 9.04C44.6867 8.79467 45.3907 8.672 46.1907 8.672C47.0014 8.672 47.7107 8.79467 48.3187 9.04C48.9267 9.28533 49.4014 9.63733 49.7427 10.096C50.084 10.544 50.2547 11.0827 50.2547 11.712C50.2547 12.3093 50.0947 12.8267 49.7747 13.264C49.4547 13.6907 48.9907 14.0213 48.3827 14.256C47.7747 14.48 47.044 14.592 46.1907 14.592ZM46.1907 13.568C46.9694 13.568 47.5774 13.408 48.0147 13.088C48.4627 12.768 48.6867 12.3307 48.6867 11.776C48.6867 11.2107 48.4574 10.768 47.9987 10.448C47.54 10.128 46.9374 9.968 46.1907 9.968C45.444 9.968 44.8467 10.128 44.3987 10.448C43.9614 10.768 43.7427 11.2107 43.7427 11.776C43.7427 12.3307 43.956 12.768 44.3827 13.088C44.82 13.408 45.4227 13.568 46.1907 13.568ZM61.6004 20.096C60.8751 20.096 60.2191 19.936 59.6324 19.616C59.0564 19.2853 58.5978 18.8 58.2564 18.16C57.9258 17.52 57.7604 16.72 57.7604 15.76C57.7604 14.8 57.9311 14 58.2724 13.36C58.6244 12.72 59.0884 12.24 59.6644 11.92C60.2511 11.6 60.8964 11.44 61.6004 11.44C62.4324 11.44 63.1684 11.6213 63.8084 11.984C64.4484 12.3467 64.9551 12.8533 65.3284 13.504C65.7018 14.144 65.8884 14.896 65.8884 15.76C65.8884 16.624 65.7018 17.3813 65.3284 18.032C64.9551 18.6827 64.4484 19.1893 63.8084 19.552C63.1684 19.9147 62.4324 20.096 61.6004 20.096ZM57.1044 20V8.128H58.6404V13.776L58.4804 15.744L58.5764 17.712V20H57.1044ZM61.4724 18.752C62.0164 18.752 62.5018 18.6293 62.9284 18.384C63.3658 18.1387 63.7071 17.792 63.9524 17.344C64.2084 16.8853 64.3364 16.3573 64.3364 15.76C64.3364 15.152 64.2084 14.6293 63.9524 14.192C63.7071 13.744 63.3658 13.3973 62.9284 13.152C62.5018 12.9067 62.0164 12.784 61.4724 12.784C60.9391 12.784 60.4538 12.9067 60.0164 13.152C59.5898 13.3973 59.2484 13.744 58.9924 14.192C58.7471 14.6293 58.6244 15.152 58.6244 15.76C58.6244 16.3573 58.7471 16.8853 58.9924 17.344C59.2484 17.792 59.5898 18.1387 60.0164 18.384C60.4538 18.6293 60.9391 18.752 61.4724 18.752Z" fill="#044F5C"/>
</svg>
