<svg width="96" height="28" viewBox="0 0 96 28" fill="none" xmlns="http://www.w3.org/2000/svg">
<rect width="96" height="28" rx="3" fill="#11CDEF" fill-opacity="0.3"/>
<path d="M15.6751 20.128C14.6831 20.128 13.8351 19.9093 13.1311 19.472C12.4271 19.0347 11.8885 18.4053 11.5151 17.584C11.1525 16.752 10.9711 15.7387 10.9711 14.544C10.9711 13.2747 11.1951 12.2027 11.6431 11.328C12.0911 10.4533 12.7151 9.792 13.5151 9.344C14.3151 8.896 15.2325 8.672 16.2671 8.672C16.8005 8.672 17.3071 8.72533 17.7871 8.832C18.2778 8.93867 18.6991 9.104 19.0511 9.328L18.4431 10.576C18.1551 10.3733 17.8245 10.2347 17.4511 10.16C17.0885 10.0853 16.7045 10.048 16.2991 10.048C15.1578 10.048 14.2511 10.4053 13.5791 11.12C12.9071 11.824 12.5711 12.8747 12.5711 14.272C12.5711 14.496 12.5818 14.7627 12.6031 15.072C12.6245 15.3813 12.6778 15.6853 12.7631 15.984L12.2191 15.44C12.3791 14.9493 12.6298 14.5387 12.9711 14.208C13.3231 13.8667 13.7391 13.616 14.2191 13.456C14.7098 13.2853 15.2378 13.2 15.8031 13.2C16.5498 13.2 17.2111 13.3387 17.7871 13.616C18.3631 13.8933 18.8165 14.288 19.1471 14.8C19.4778 15.3013 19.6431 15.8987 19.6431 16.592C19.6431 17.3067 19.4671 17.9307 19.1151 18.464C18.7631 18.9973 18.2885 19.408 17.6911 19.696C17.0938 19.984 16.4218 20.128 15.6751 20.128ZM15.6111 18.832C16.1018 18.832 16.5285 18.7413 16.8911 18.56C17.2645 18.3787 17.5578 18.128 17.7711 17.808C17.9845 17.4773 18.0911 17.0933 18.0911 16.656C18.0911 15.9947 17.8618 15.472 17.4031 15.088C16.9445 14.6933 16.3205 14.496 15.5311 14.496C15.0191 14.496 14.5711 14.592 14.1871 14.784C13.8031 14.976 13.4991 15.2373 13.2751 15.568C13.0618 15.888 12.9551 16.256 12.9551 16.672C12.9551 17.056 13.0565 17.4133 13.2591 17.744C13.4618 18.064 13.7605 18.3253 14.1551 18.528C14.5498 18.7307 15.0351 18.832 15.6111 18.832ZM24.4781 8.672C25.4915 8.672 26.3448 8.89067 27.0381 9.328C27.7421 9.76533 28.2755 10.4 28.6381 11.232C29.0008 12.0533 29.1821 13.0613 29.1821 14.256C29.1821 15.5253 28.9581 16.5973 28.5101 17.472C28.0621 18.3467 27.4435 19.008 26.6541 19.456C25.8648 19.904 24.9421 20.128 23.8861 20.128C23.3635 20.128 22.8568 20.0747 22.3661 19.968C21.8861 19.8613 21.4648 19.696 21.1021 19.472L21.7101 18.224C22.0088 18.416 22.3395 18.5547 22.7021 18.64C23.0755 18.7147 23.4648 18.752 23.8701 18.752C25.0008 18.752 25.9021 18.4 26.5741 17.696C27.2461 16.9813 27.5821 15.9253 27.5821 14.528C27.5821 14.304 27.5715 14.0373 27.5501 13.728C27.5288 13.4187 27.4808 13.1147 27.4061 12.816L27.9341 13.36C27.7848 13.8507 27.5341 14.2667 27.1821 14.608C26.8408 14.9387 26.4248 15.1893 25.9341 15.36C25.4541 15.52 24.9261 15.6 24.3501 15.6C23.6141 15.6 22.9581 15.4613 22.3821 15.184C21.8061 14.9067 21.3528 14.5173 21.0221 14.016C20.6915 13.504 20.5261 12.9013 20.5261 12.208C20.5261 11.4827 20.6968 10.8587 21.0381 10.336C21.3901 9.80267 21.8648 9.392 22.4621 9.104C23.0701 8.816 23.7421 8.672 24.4781 8.672ZM24.5421 9.968C24.0621 9.968 23.6355 10.0587 23.2621 10.24C22.8888 10.4213 22.5955 10.672 22.3821 10.992C22.1795 11.312 22.0781 11.696 22.0781 12.144C22.0781 12.8053 22.3075 13.3333 22.7661 13.728C23.2248 14.112 23.8435 14.304 24.6221 14.304C25.1341 14.304 25.5821 14.208 25.9661 14.016C26.3608 13.824 26.6648 13.5627 26.8781 13.232C27.1021 12.9013 27.2141 12.5333 27.2141 12.128C27.2141 11.7333 27.1128 11.376 26.9101 11.056C26.7075 10.736 26.4088 10.4747 26.0141 10.272C25.6195 10.0693 25.1288 9.968 24.5421 9.968ZM35.0891 20.128C34.1825 20.128 33.3985 19.9947 32.7371 19.728C32.0758 19.4613 31.5638 19.0827 31.2011 18.592C30.8385 18.0907 30.6571 17.504 30.6571 16.832C30.6571 16.1707 30.8278 15.6107 31.1691 15.152C31.5211 14.6827 32.0278 14.3307 32.6891 14.096C33.3505 13.8507 34.1505 13.728 35.0891 13.728C36.0278 13.728 36.8278 13.8507 37.4891 14.096C38.1611 14.3307 38.6731 14.6827 39.0251 15.152C39.3771 15.6213 39.5531 16.1813 39.5531 16.832C39.5531 17.504 39.3718 18.0907 39.0091 18.592C38.6465 19.0827 38.1291 19.4613 37.4571 19.728C36.7851 19.9947 35.9958 20.128 35.0891 20.128ZM35.0891 18.832C35.9851 18.832 36.6838 18.6507 37.1851 18.288C37.6971 17.9147 37.9531 17.4133 37.9531 16.784C37.9531 16.1653 37.6971 15.68 37.1851 15.328C36.6838 14.9653 35.9851 14.784 35.0891 14.784C34.2038 14.784 33.5105 14.9653 33.0091 15.328C32.5078 15.68 32.2571 16.1653 32.2571 16.784C32.2571 17.4133 32.5078 17.9147 33.0091 18.288C33.5105 18.6507 34.2038 18.832 35.0891 18.832ZM35.0891 14.592C34.2358 14.592 33.5105 14.48 32.9131 14.256C32.3158 14.0213 31.8571 13.6907 31.5371 13.264C31.2171 12.8267 31.0571 12.3093 31.0571 11.712C31.0571 11.0827 31.2225 10.544 31.5531 10.096C31.8945 9.63733 32.3691 9.28533 32.9771 9.04C33.5851 8.79467 34.2891 8.672 35.0891 8.672C35.8998 8.672 36.6091 8.79467 37.2171 9.04C37.8251 9.28533 38.2998 9.63733 38.6411 10.096C38.9825 10.544 39.1531 11.0827 39.1531 11.712C39.1531 12.3093 38.9931 12.8267 38.6731 13.264C38.3531 13.6907 37.8891 14.0213 37.2811 14.256C36.6731 14.48 35.9425 14.592 35.0891 14.592ZM35.0891 13.568C35.8678 13.568 36.4758 13.408 36.9131 13.088C37.3611 12.768 37.5851 12.3307 37.5851 11.776C37.5851 11.2107 37.3558 10.768 36.8971 10.448C36.4385 10.128 35.8358 9.968 35.0891 9.968C34.3425 9.968 33.7451 10.128 33.2971 10.448C32.8598 10.768 32.6411 11.2107 32.6411 11.776C32.6411 12.3307 32.8545 12.768 33.2811 13.088C33.7185 13.408 34.3211 13.568 35.0891 13.568ZM44.634 20.128C43.8447 20.128 43.0767 20.0053 42.33 19.76C41.594 19.5147 40.9913 19.184 40.522 18.768L41.258 17.504C41.6313 17.856 42.1167 18.144 42.714 18.368C43.3113 18.592 43.946 18.704 44.618 18.704C45.4713 18.704 46.1273 18.5227 46.586 18.16C47.0447 17.7973 47.274 17.312 47.274 16.704C47.274 16.288 47.1727 15.9253 46.97 15.616C46.7673 15.3067 46.4153 15.072 45.914 14.912C45.4233 14.7413 44.746 14.656 43.882 14.656H41.338L41.93 8.8H48.25V10.192H42.522L43.354 9.408L42.89 14.032L42.058 13.264H44.218C45.338 13.264 46.2393 13.408 46.922 13.696C47.6047 13.984 48.1007 14.384 48.41 14.896C48.7193 15.3973 48.874 15.9787 48.874 16.64C48.874 17.28 48.7193 17.8667 48.41 18.4C48.1007 18.9227 47.6313 19.344 47.002 19.664C46.3833 19.9733 45.594 20.128 44.634 20.128ZM50.0455 17.248V16.128L55.7735 8.8H57.5015L51.8215 16.128L51.0055 15.872H59.9495V17.248H50.0455ZM56.2695 20V17.248L56.3175 15.872V13.44H57.8215V20H56.2695ZM65.4329 20.128C64.5262 20.128 63.7422 19.9947 63.0809 19.728C62.4195 19.4613 61.9075 19.0827 61.5449 18.592C61.1822 18.0907 61.0009 17.504 61.0009 16.832C61.0009 16.1707 61.1715 15.6107 61.5129 15.152C61.8649 14.6827 62.3715 14.3307 63.0329 14.096C63.6942 13.8507 64.4942 13.728 65.4329 13.728C66.3715 13.728 67.1715 13.8507 67.8329 14.096C68.5049 14.3307 69.0169 14.6827 69.3689 15.152C69.7209 15.6213 69.8969 16.1813 69.8969 16.832C69.8969 17.504 69.7155 18.0907 69.3529 18.592C68.9902 19.0827 68.4729 19.4613 67.8009 19.728C67.1289 19.9947 66.3395 20.128 65.4329 20.128ZM65.4329 18.832C66.3289 18.832 67.0275 18.6507 67.5289 18.288C68.0409 17.9147 68.2969 17.4133 68.2969 16.784C68.2969 16.1653 68.0409 15.68 67.5289 15.328C67.0275 14.9653 66.3289 14.784 65.4329 14.784C64.5475 14.784 63.8542 14.9653 63.3529 15.328C62.8515 15.68 62.6009 16.1653 62.6009 16.784C62.6009 17.4133 62.8515 17.9147 63.3529 18.288C63.8542 18.6507 64.5475 18.832 65.4329 18.832ZM65.4329 14.592C64.5795 14.592 63.8542 14.48 63.2569 14.256C62.6595 14.0213 62.2009 13.6907 61.8809 13.264C61.5609 12.8267 61.4009 12.3093 61.4009 11.712C61.4009 11.0827 61.5662 10.544 61.8969 10.096C62.2382 9.63733 62.7129 9.28533 63.3209 9.04C63.9289 8.79467 64.6329 8.672 65.4329 8.672C66.2435 8.672 66.9529 8.79467 67.5609 9.04C68.1689 9.28533 68.6435 9.63733 68.9849 10.096C69.3262 10.544 69.4969 11.0827 69.4969 11.712C69.4969 12.3093 69.3369 12.8267 69.0169 13.264C68.6969 13.6907 68.2329 14.0213 67.6249 14.256C67.0169 14.48 66.2862 14.592 65.4329 14.592ZM65.4329 13.568C66.2115 13.568 66.8195 13.408 67.2569 13.088C67.7049 12.768 67.9289 12.3307 67.9289 11.776C67.9289 11.2107 67.6995 10.768 67.2409 10.448C66.7822 10.128 66.1795 9.968 65.4329 9.968C64.6862 9.968 64.0889 10.128 63.6409 10.448C63.2035 10.768 62.9849 11.2107 62.9849 11.776C62.9849 12.3307 63.1982 12.768 63.6249 13.088C64.0622 13.408 64.6649 13.568 65.4329 13.568ZM80.8426 20.096C80.1173 20.096 79.4613 19.936 78.8746 19.616C78.2986 19.2853 77.84 18.8 77.4986 18.16C77.168 17.52 77.0026 16.72 77.0026 15.76C77.0026 14.8 77.1733 14 77.5146 13.36C77.8666 12.72 78.3306 12.24 78.9066 11.92C79.4933 11.6 80.1386 11.44 80.8426 11.44C81.6746 11.44 82.4106 11.6213 83.0506 11.984C83.6906 12.3467 84.1973 12.8533 84.5706 13.504C84.944 14.144 85.1306 14.896 85.1306 15.76C85.1306 16.624 84.944 17.3813 84.5706 18.032C84.1973 18.6827 83.6906 19.1893 83.0506 19.552C82.4106 19.9147 81.6746 20.096 80.8426 20.096ZM76.3466 20V8.128H77.8826V13.776L77.7226 15.744L77.8186 17.712V20H76.3466ZM80.7146 18.752C81.2586 18.752 81.744 18.6293 82.1706 18.384C82.608 18.1387 82.9493 17.792 83.1946 17.344C83.4506 16.8853 83.5786 16.3573 83.5786 15.76C83.5786 15.152 83.4506 14.6293 83.1946 14.192C82.9493 13.744 82.608 13.3973 82.1706 13.152C81.744 12.9067 81.2586 12.784 80.7146 12.784C80.1813 12.784 79.696 12.9067 79.2586 13.152C78.832 13.3973 78.4906 13.744 78.2346 14.192C77.9893 14.6293 77.8666 15.152 77.8666 15.76C77.8666 16.3573 77.9893 16.8853 78.2346 17.344C78.4906 17.792 78.832 18.1387 79.2586 18.384C79.696 18.6293 80.1813 18.752 80.7146 18.752Z" fill="#044F5C"/>
</svg>
