<svg width="18" height="18" viewBox="0 0 18 18" fill="none" xmlns="http://www.w3.org/2000/svg">
<rect width="18" height="18" fill="white" fill-opacity="0.01"/>
<g clip-path="url(#clip0_679_4334)">
<path d="M11.3333 10.3333H10.8067L10.62 10.1533C11.2733 9.39333 11.6667 8.40667 11.6667 7.33333C11.6667 4.94 9.72667 3 7.33333 3C4.94 3 3 4.94 3 7.33333C3 9.72667 4.94 11.6667 7.33333 11.6667C8.40667 11.6667 9.39333 11.2733 10.1533 10.62L10.3333 10.8067V11.3333L13.6667 14.66L14.66 13.6667L11.3333 10.3333V10.3333ZM7.33333 10.3333C5.67333 10.3333 4.33333 8.99333 4.33333 7.33333C4.33333 5.67333 5.67333 4.33333 7.33333 4.33333C8.99333 4.33333 10.3333 5.67333 10.3333 7.33333C10.3333 8.99333 8.99333 10.3333 7.33333 10.3333Z" fill="#6C757D"/>
</g>
<defs>
<clipPath id="clip0_679_4334">
<rect width="16" height="16" fill="white" transform="translate(1 1)"/>
</clipPath>
</defs>
</svg>
