<svg width="150" height="150" viewBox="0 0 150 150" fill="none" xmlns="http://www.w3.org/2000/svg">
<rect opacity="0.5" x="45.822" y="2.02705" width="4.10959" height="4.05406" fill="#96E7C4"/>
<rect opacity="0.5" x="76" y="144" width="4.10959" height="4.05406" fill="#96E7C4"/>
<rect opacity="0.5" x="145.89" width="4.10959" height="4.05406" fill="#96E7C4"/>
<rect opacity="0.5" x="135.616" y="96.8918" width="4.10959" height="4.05406" fill="#FB6340"/>
<rect opacity="0.5" x="131.507" y="16.8244" width="4.10959" height="4.05406" fill="#FB6340"/>
<rect opacity="0.5" x="60" y="126" width="4.10959" height="4.05406" fill="#FB6340"/>
<rect opacity="0.5" x="145.89" y="141.892" width="4.10959" height="4.05406" fill="#FCE880"/>
<rect opacity="0.5" y="145.946" width="4.10959" height="4.05406" fill="#FCE880"/>
<rect opacity="0.5" x="34.3149" y="45.6082" width="4.10959" height="4.05406" fill="#FCE880"/>
<rect opacity="0.5" x="6.16431" y="20.8785" width="4.10959" height="4.05406" fill="#11CDEF"/>
<rect opacity="0.5" x="6.16431" y="80.6756" width="20.5479" height="4.05406" fill="#11CDEF"/>
<rect x="105" y="127.5" width="16.8493" height="4.05406" fill="#AFB9F2"/>
<rect x="111.37" y="137.838" width="16.6216" height="4.10959" transform="rotate(-90 111.37 137.838)" fill="#AFB9F2"/>
<ellipse cx="93.0821" cy="57.9728" rx="20.5479" ry="20.2703" fill="#E7FBFF" fill-opacity="0.81"/>
<rect width="39.1864" height="16.3277" transform="matrix(0.7119 -0.70228 0.7119 0.70228 27.7397 111.011)" fill="#A7B1F0"/>
<rect width="14.2867" height="10.2048" transform="matrix(0.7119 -0.70228 0.7119 0.70228 57.8159 85.6412)" fill="#AFB9F2"/>
<path fill-rule="evenodd" clip-rule="evenodd" d="M93.0822 27.5676C110.105 27.5676 123.904 41.1805 123.904 57.973C123.904 74.7654 110.105 88.3784 93.0822 88.3784C76.0597 88.3784 62.2603 74.7654 62.2603 57.973C62.2603 41.1805 76.0597 27.5676 93.0822 27.5676ZM93.0822 37.7031C104.431 37.7031 113.63 46.7784 113.63 57.9733C113.63 69.1683 104.431 78.2436 93.0822 78.2436C81.7339 78.2436 72.5342 69.1683 72.5342 57.9733C72.5342 46.7784 81.7339 37.7031 93.0822 37.7031Z" fill="#8796EB"/>
<path fill-rule="evenodd" clip-rule="evenodd" d="M79.5757 58.8998C78.9707 51.9559 83.9277 45.6468 91.0127 44.5803C98.0978 43.5138 104.737 48.0773 106.258 54.8832L101.787 55.5563C100.652 51.1799 96.315 48.2814 91.6928 48.9772C87.0706 49.6729 83.8069 53.7157 84.0473 58.2267L79.5757 58.8998ZM106.268 54.9248C106.328 55.1988 106.38 55.4764 106.424 55.7575C106.467 56.0385 106.501 56.3188 106.527 56.5981L106.268 54.9248Z" fill="#CAF7FF"/>
</svg>
