<svg width="119" height="28" viewBox="0 0 119 28" fill="none" xmlns="http://www.w3.org/2000/svg">
<rect width="119" height="28" rx="3" fill="#2DCE89" fill-opacity="0.3"/>
<path d="M17.2282 20.128C16.3749 20.128 15.5802 19.984 14.8442 19.696C14.1189 19.408 13.4895 19.008 12.9562 18.496C12.4229 17.9733 12.0069 17.3653 11.7082 16.672C11.4095 15.9787 11.2602 15.2213 11.2602 14.4C11.2602 13.5787 11.4095 12.8213 11.7082 12.128C12.0069 11.4347 12.4229 10.832 12.9562 10.32C13.4895 9.79733 14.1189 9.392 14.8442 9.104C15.5695 8.816 16.3642 8.672 17.2282 8.672C18.0815 8.672 18.8655 8.816 19.5802 9.104C20.3055 9.38133 20.9349 9.78133 21.4682 10.304C22.0122 10.816 22.4282 11.4187 22.7162 12.112C23.0149 12.8053 23.1642 13.568 23.1642 14.4C23.1642 15.232 23.0149 15.9947 22.7162 16.688C22.4282 17.3813 22.0122 17.9893 21.4682 18.512C20.9349 19.024 20.3055 19.424 19.5802 19.712C18.8655 19.9893 18.0815 20.128 17.2282 20.128ZM17.2282 18.704C17.8469 18.704 18.4175 18.5973 18.9402 18.384C19.4735 18.1707 19.9322 17.872 20.3162 17.488C20.7109 17.0933 21.0149 16.6347 21.2282 16.112C21.4522 15.5893 21.5642 15.0187 21.5642 14.4C21.5642 13.7813 21.4522 13.2107 21.2282 12.688C21.0149 12.1653 20.7109 11.712 20.3162 11.328C19.9322 10.9333 19.4735 10.6293 18.9402 10.416C18.4175 10.2027 17.8469 10.096 17.2282 10.096C16.5989 10.096 16.0175 10.2027 15.4842 10.416C14.9615 10.6293 14.5029 10.9333 14.1082 11.328C13.7135 11.712 13.4042 12.1653 13.1802 12.688C12.9669 13.2107 12.8602 13.7813 12.8602 14.4C12.8602 15.0187 12.9669 15.5893 13.1802 16.112C13.4042 16.6347 13.7135 17.0933 14.1082 17.488C14.5029 17.872 14.9615 18.1707 15.4842 18.384C16.0175 18.5973 16.5989 18.704 17.2282 18.704ZM25.6097 20V8.8H29.9777C30.959 8.8 31.7964 8.95467 32.4897 9.264C33.183 9.57333 33.7164 10.0213 34.0897 10.608C34.463 11.1947 34.6497 11.8933 34.6497 12.704C34.6497 13.5147 34.463 14.2133 34.0897 14.8C33.7164 15.376 33.183 15.824 32.4897 16.144C31.7964 16.4533 30.959 16.608 29.9777 16.608H26.4897L27.2097 15.856V20H25.6097ZM27.2097 16.016L26.4897 15.216H29.9297C30.9537 15.216 31.727 14.9973 32.2497 14.56C32.783 14.1227 33.0497 13.504 33.0497 12.704C33.0497 11.904 32.783 11.2853 32.2497 10.848C31.727 10.4107 30.9537 10.192 29.9297 10.192H26.4897L27.2097 9.392V16.016ZM38.4563 13.632H44.2163V14.992H38.4563V13.632ZM38.6003 18.608H45.1283V20H37.0003V8.8H44.9043V10.192H38.6003V18.608ZM47.7191 20V8.8H52.0871C53.0684 8.8 53.9057 8.95467 54.5991 9.264C55.2924 9.57333 55.8257 10.0213 56.1991 10.608C56.5724 11.1947 56.7591 11.8933 56.7591 12.704C56.7591 13.5147 56.5724 14.2133 56.1991 14.8C55.8257 15.376 55.2924 15.8187 54.5991 16.128C53.9057 16.4373 53.0684 16.592 52.0871 16.592H48.5991L49.3191 15.856V20H47.7191ZM55.2071 20L52.3591 15.936H54.0711L56.9511 20H55.2071ZM49.3191 16.016L48.5991 15.232H52.0391C53.0631 15.232 53.8364 15.0133 54.3591 14.576C54.8924 14.128 55.1591 13.504 55.1591 12.704C55.1591 11.904 54.8924 11.2853 54.3591 10.848C53.8364 10.4107 53.0631 10.192 52.0391 10.192H48.5991L49.3191 9.392V16.016ZM57.6481 20L62.7201 8.8H64.3041L69.3921 20H67.7121L63.1841 9.696H63.8241L59.2961 20H57.6481ZM59.8081 17.2L60.2401 15.92H66.5441L67.0081 17.2H59.8081ZM72.7243 20V10.192H68.8843V8.8H78.1483V10.192H74.3083V20H72.7243ZM79.8909 20V8.8H81.4909V20H79.8909ZM84.8441 20V8.8H86.1561L93.5641 18H92.8761V8.8H94.4761V20H93.1641L85.7561 10.8H86.4441V20H84.8441ZM102.884 20.128C102.02 20.128 101.226 19.9893 100.5 19.712C99.7751 19.424 99.1458 19.024 98.6124 18.512C98.0791 17.9893 97.6631 17.3813 97.3644 16.688C97.0658 15.9947 96.9164 15.232 96.9164 14.4C96.9164 13.568 97.0658 12.8053 97.3644 12.112C97.6631 11.4187 98.0791 10.816 98.6124 10.304C99.1564 9.78133 99.7911 9.38133 100.516 9.104C101.242 8.816 102.042 8.672 102.916 8.672C103.802 8.672 104.612 8.816 105.348 9.104C106.084 9.392 106.708 9.824 107.22 10.4L106.228 11.392C105.77 10.944 105.268 10.6187 104.724 10.416C104.191 10.2027 103.61 10.096 102.98 10.096C102.34 10.096 101.743 10.2027 101.188 10.416C100.644 10.6293 100.17 10.928 99.7644 11.312C99.3698 11.696 99.0604 12.1547 98.8364 12.688C98.6231 13.2107 98.5164 13.7813 98.5164 14.4C98.5164 15.008 98.6231 15.5787 98.8364 16.112C99.0604 16.6347 99.3698 17.0933 99.7644 17.488C100.17 17.872 100.644 18.1707 101.188 18.384C101.732 18.5973 102.324 18.704 102.964 18.704C103.562 18.704 104.132 18.6133 104.676 18.432C105.231 18.24 105.743 17.9253 106.212 17.488L107.124 18.704C106.57 19.1733 105.919 19.5307 105.172 19.776C104.436 20.0107 103.674 20.128 102.884 20.128ZM105.588 18.496V14.336H107.124V18.704L105.588 18.496Z" fill="#005430"/>
</svg>
